# xmcd CD database file
#
# Track frame offsets:
#	150
#	33637
#	46396
#	74280
#	117291
#	157198
#	169875
#
# Disc length: 2634 seconds
#
# Revision: 0
# Processed by: cddbd v1.5.1PL0 Copyright (c) Steve Scherf et al.
# Submitted via: CDex 1.50beta10
#
DISCID=610a4807
DTITLE=F.A.B. - Pacific Moon ½P
DYEAR=1900
DGENRE=New Age
TTITLE0=Hokkekyo
TTITLE1=Narai
TTITLE2=Rokai
TTITLE3=Uminari
TTITLE4=Hae
TTITLE5=Shioji
TTITLE6=Kochi
EXTD=
EXTT0=
EXTT1=
EXTT2=
EXTT3=
EXTT4=
EXTT5=
EXTT6=
PLAYORDER=
